<?xml version="1.0" encoding="utf-8"?>
<!-- Generator: Adobe Illustrator 28.0.0, SVG Export Plug-In . SVG Version: 6.00 Build 0)  -->
<svg version="1.1" id="Layer_1" xmlns="http://www.w3.org/2000/svg" xmlns:xlink="http://www.w3.org/1999/xlink" x="0px" y="0px"
	 width="91.2px" height="96.5px" viewBox="0 0 91.2 96.5" style="enable-background:new 0 0 91.2 96.5;" xml:space="preserve">
<style type="text/css">
	.st0{opacity:0.7;fill:#3767D3;enable-background:new    ;}
	.st1{fill:#A4C3F1;}
	.st2{fill:#4972D4;}
	.st3{fill:#F1C630;}
	.st4{fill:#3767D3;}
	.st5{fill:#6C732A;}
	.st6{fill:#FEE612;}
	.st7{fill:#C68D77;}
	.st8{fill:#4C3024;}
	.st9{fill:#D34124;}
	.st10{fill:#FFFFFF;}
	.st11{fill:#E8B9AE;}
	.st12{fill:#4B3F4D;}
	.st13{fill:#684637;}
</style>
<path class="st0" d="M73.2,22.6c-0.3,0-0.6,0-1,0.1l-17,2.5c-2.9,4-7.5,6.5-12.8,6.5c-3.6,0-7-1.2-9.7-3.3L6.9,32.1
	c-3.8,0.5-6.9,4.2-6.9,8v49.5c0,3.6,2.6,6.1,5.9,6.1c0.3,0,0.6,0,1-0.1l1-0.1C3.3,93.7,0,89.2,0,83.9V45.4c0-6.9,5.6-12.6,12.6-12.6
	H72c2.6,0,5,0.8,7.1,2.2v-6.3C79.1,25.2,76.5,22.6,73.2,22.6"/>
<path class="st1" d="M79.1,35v43.2c0,3.9-3.1,7.5-6.9,8.1L7.9,95.6c1.5,0.6,3,0.9,4.7,0.9H72c6.9,0,12.6-5.6,12.6-12.6V45.4
	C84.6,41.1,82.4,37.3,79.1,35"/>
<path class="st2" d="M42.5,44.8c-0.2,0-0.4,0-0.6,0.2c-0.2,0.2-0.4,0.6-0.5,1c0.6,0,1.2-0.1,1.8-0.1c0.4,0,0.8,0,1.2,0
	c-0.3-0.4-0.7-0.7-1.1-1C43,44.9,42.8,44.8,42.5,44.8 M45.4,45.6c0.3-0.7,0.3-1.6,0-2.4c-0.3-0.7-0.8-1.2-1.3-1.5
	c-0.3-0.1-0.4-0.4-0.3-0.7c0.1-0.2,0.3-0.3,0.5-0.3c0.1,0,0.2,0,0.2,0c0.9,0.4,1.6,1.2,2,2.1c0.4,1,0.4,2.2,0,3.2
	c0,0.1,0,0.1-0.1,0.2c8.1,1.4,14.5,7.8,15.8,16c1.6,0.2,2.8,1.6,2.8,3.3s-1.3,3.1-2.9,3.3c-1.7,8.9-9.5,15.6-18.8,15.6
	S26,77.6,24.3,68.7c-1.6-0.2-2.9-1.6-2.9-3.3s1.2-3,2.8-3.3c1.3-8.2,7.8-14.8,16.1-16c0-0.8,0.3-1.5,0.9-2c0.4-0.3,0.8-0.4,1.3-0.4
	c0.4,0,0.8,0.1,1.2,0.3C44.4,44.3,45,44.9,45.4,45.6 M72,32.9H12.6C5.6,32.9,0,38.5,0,45.4v38.5c0,5.3,3.3,9.8,7.9,11.7l64.3-9.3
	c3.8-0.6,6.9-4.2,6.9-8.1V35C77.1,33.7,74.7,32.9,72,32.9"/>
<path class="st3" d="M78.4,58.8h8.8c2.2,0,4.1,1.8,4.1,4.1v5.9c0,2.2-1.8,4.1-4.1,4.1h-8.8c-2.2,0-4.1-1.8-4.1-4.1v-5.9
	C74.3,60.6,76.1,58.8,78.4,58.8z"/>
<circle class="st4" cx="84.9" cy="65.9" r="3.2"/>
<path class="st3" d="M44.2,16.8c-0.2,0-0.3,0-0.5,0l1.5,4.7c1.6-0.6,2.4-1.8,2-3.1C46.9,17.4,46.3,16.8,44.2,16.8 M40.3,10.7
	c-1.9,0.7-2.2,1.9-1.9,2.8s0.9,1.4,2.6,1.4c0.2,0,0.4,0,0.6,0L40.3,10.7 M40.9,17c-2.7,0-3.9-0.9-4.5-2.6c-0.5-1.8,0.2-4.1,3.4-5.2
	l-0.5-1.6l1.4-0.4l0.5,1.6c0.5-0.1,1.1-0.2,1.5-0.2c2.2,0,3.5,1.2,4,2.5l-2,0.6c-0.5-0.8-1.2-1.3-2.4-1.3c-0.2,0-0.4,0-0.7,0
	l1.4,4.4c0.5,0,0.9-0.1,1.3-0.1c3.2,0,4.3,1.3,4.8,2.9c0.7,2.2-0.5,4.4-3.5,5.6l0.6,1.9l-1.4,0.4l-0.6-1.9c-0.6,0.1-1.2,0.2-1.7,0.2
	c-2,0-3.7-1-4.6-2.8l2-0.6c0.7,1.1,1.7,1.6,3,1.6c0.3,0,0.5,0,0.8-0.1l-1.6-5C41.8,17,41.3,17,40.9,17 M42.4,0
	c-8.7,0-15.8,7.1-15.8,15.8c0,5.1,2.4,9.6,6.2,12.5l22.5-3.2c1.9-2.6,3-5.8,3-9.3C58.3,7.1,51.2,0,42.4,0"/>
<path class="st5" d="M55.3,25.1l-22.5,3.2c2.7,2.1,6,3.3,9.7,3.3C47.7,31.7,52.4,29.1,55.3,25.1"/>
<path class="st6" d="M45.2,21.5l-1.5-4.7c0.2,0,0.3,0,0.5,0c2.1,0,2.7,0.6,3,1.7C47.6,19.8,46.8,20.9,45.2,21.5 M41,14.9
	c-1.7,0-2.3-0.4-2.6-1.4c-0.3-0.9,0-2.1,1.9-2.8l1.3,4.2C41.4,14.9,41.2,14.9,41,14.9 M40.7,7.1l-1.4,0.4l0.5,1.6
	c-3.2,1.1-3.9,3.5-3.4,5.2c0.5,1.8,1.7,2.6,4.5,2.6c0.4,0,0.9,0,1.4-0.1l1.6,5C43.5,22,43.2,22,43,22c-1.2,0-2.2-0.5-3-1.6L38,21
	c1,1.8,2.6,2.8,4.6,2.8c0.5,0,1.1-0.1,1.7-0.2l0.6,1.9l1.4-0.4l-0.6-1.9c3-1.2,4.2-3.4,3.5-5.6c-0.5-1.6-1.6-2.9-4.8-2.9
	c-0.4,0-0.8,0-1.3,0.1l-1.4-4.4c0.2,0,0.5,0,0.7,0c1.2,0,1.9,0.5,2.4,1.3l2-0.6c-0.5-1.3-1.8-2.5-4-2.5c-0.5,0-1,0.1-1.5,0.2
	L40.7,7.1"/>
<path class="st7" d="M31.6,73.5c-1.4,0-2.6-1.2-2.6-2.6s1.2-2.6,2.6-2.6s2.6,1.2,2.6,2.6S33.1,73.5,31.6,73.5 M54.6,73.4
	c-1.4,0-2.6-1.2-2.6-2.6s1.2-2.6,2.6-2.6s2.6,1.2,2.6,2.6S56,73.4,54.6,73.4 M40.2,46.1c-8.3,1.2-14.8,7.8-16.1,16
	c-1.6,0.2-2.8,1.6-2.8,3.3s1.3,3.1,2.9,3.3c1.7,8.9,9.5,15.6,18.8,15.6S60.3,77.6,62,68.7c1.6-0.2,2.9-1.6,2.9-3.3s-1.2-3-2.8-3.3
	c-1.3-8.2-7.7-14.6-15.8-16c-0.1,0.3-0.3,0.5-0.5,0.8c0.1,0.9-0.1,1.9-0.6,2.5c-0.3,0.4-0.8,0.7-1.1,0.8c-0.7,0.3-1.4,0.5-2.1,0.5h0
	c-0.3,0-0.5-0.2-0.5-0.5c0-0.3,0.2-0.6,0.5-0.6c0.6,0,1.1-0.1,1.7-0.4c0.3-0.2,0.5-0.3,0.7-0.5c0.2-0.2,0.3-0.6,0.4-1
	c-0.6,0.3-1.2,0.5-2,0.5c0,0-0.1,0-0.2,0c-1.1,0-1.8-0.4-2.2-1.2C40.3,46.8,40.3,46.5,40.2,46.1 M43.2,45.9c-0.6,0-1.2,0-1.8,0.1
	c0,0.2,0,0.4,0.1,0.6c0.2,0.4,0.6,0.6,1.2,0.6c0,0,0.1,0,0.1,0c0.5,0,1.3-0.1,1.9-0.6v0c-0.1-0.2-0.2-0.4-0.3-0.6
	C44,45.9,43.6,45.9,43.2,45.9"/>
<path class="st8" d="M55,65.7c-0.1-1.4-1.2-2.4-2.6-2.5c-1.5-0.1-2.8,1.2-2.8,2.7l0,0c0,0.4,0.5,0.6,0.8,0.3
	c0.5-0.5,1.1-0.8,1.9-0.8s1.4,0.3,1.9,0.8c0.3,0.3,0.8,0.1,0.8-0.3L55,65.7L55,65.7z"/>
<path class="st8" d="M33.8,63.2c-1.4,0.1-2.5,1.2-2.6,2.5v0.2c0,0.4,0.5,0.6,0.8,0.3c0.5-0.5,1.1-0.8,1.9-0.8s1.4,0.3,1.9,0.8
	c0.3,0.3,0.8,0.1,0.8-0.3l0,0C36.6,64.4,35.4,63.2,33.8,63.2L33.8,63.2z"/>
<path class="st9" d="M37.7,68.8c0.3,2.8,2.6,4.9,5.4,4.9s5.1-2.2,5.4-4.9H37.7z"/>
<path class="st10" d="M40.8,68.8c0.1,1.2,1.1,2.1,2.3,2.1s2.2-0.9,2.3-2.1H40.8L40.8,68.8z"/>
<path class="st11" d="M31.6,68.3c-1.4,0-2.6,1.2-2.6,2.6s1.2,2.6,2.6,2.6s2.6-1.2,2.6-2.6S33.1,68.3,31.6,68.3"/>
<path class="st11" d="M54.6,68.2c-1.4,0-2.6,1.2-2.6,2.6s1.2,2.6,2.6,2.6s2.6-1.2,2.6-2.6S56,68.2,54.6,68.2"/>
<path class="st12" d="M44.2,40.7c-0.2,0-0.4,0.1-0.5,0.3c-0.1,0.3,0,0.6,0.3,0.7c0.6,0.2,1.1,0.8,1.3,1.5c0.3,0.8,0.3,1.7,0,2.4
	c-0.4-0.7-1-1.2-1.7-1.6c-0.4-0.2-0.8-0.3-1.2-0.3c-0.5,0-0.9,0.1-1.3,0.4c-0.6,0.4-0.9,1.2-0.9,2c0.4-0.1,0.7-0.1,1.1-0.1
	c0-0.4,0.2-0.8,0.5-1c0.2-0.2,0.4-0.2,0.6-0.2c0.3,0,0.6,0.1,0.8,0.2c0.5,0.2,0.8,0.5,1.1,1c0.7,0,1.3,0.1,2,0.2c0,0,0-0.1,0.1-0.2
	c0.4-1,0.4-2.2,0-3.2c-0.4-1-1.1-1.8-2-2.1C44.4,40.7,44.3,40.7,44.2,40.7"/>
<path class="st13" d="M44.3,46c0.1,0.2,0.2,0.4,0.3,0.6v0c-0.6,0.5-1.4,0.6-1.9,0.6c0,0-0.1,0-0.1,0c-0.6,0-1-0.2-1.2-0.6
	c-0.1-0.2-0.1-0.4-0.1-0.6c-0.4,0-0.7,0.1-1.1,0.1c0,0.3,0,0.6,0.2,0.9c0.3,0.8,1.1,1.2,2.2,1.2c0,0,0.1,0,0.2,0
	c0.7,0,1.4-0.2,2-0.5c0,0.4-0.2,0.7-0.4,1c-0.2,0.2-0.4,0.3-0.7,0.5c-0.5,0.2-1.1,0.4-1.7,0.4c-0.3,0-0.5,0.3-0.5,0.6
	c0,0.3,0.2,0.5,0.5,0.5h0c0.7,0,1.4-0.2,2.1-0.5c0.3-0.1,0.8-0.4,1.1-0.8c0.5-0.6,0.7-1.6,0.6-2.5c0.2-0.2,0.4-0.5,0.5-0.8
	C45.6,46.1,45,46,44.3,46"/>
</svg>
